<mxfile host="app.diagrams.net" modified="2024-04-07T08:32:07.949Z" agent="Mozilla/5.0 (Windows NT 10.0; Win64; x64) AppleWebKit/537.36 (KHTML, like Gecko) Chrome/114.0.5735.289 Safari/537.36" etag="vn7eNwZ19L4NTLitFXPv" version="24.2.2" type="device">
  <diagram id="C5RBs43oDa-KdzZeNtuy" name="Page-1">
    <mxGraphModel dx="6773" dy="3325" grid="1" gridSize="10" guides="1" tooltips="1" connect="1" arrows="1" fold="1" page="1" pageScale="1" pageWidth="827" pageHeight="1169" math="0" shadow="0">
      <root>
        <mxCell id="WIyWlLk6GJQsqaUBKTNV-0" />
        <mxCell id="WIyWlLk6GJQsqaUBKTNV-1" parent="WIyWlLk6GJQsqaUBKTNV-0" />
        <mxCell id="ctdj9bFus3TpHqiphpjE-0" value="&lt;span style=&quot;font-size: 128px;&quot;&gt;架构&lt;/span&gt;" style="swimlane;whiteSpace=wrap;html=1;startSize=120;strokeWidth=5;labelBackgroundColor=none;swimlaneFillColor=none;" parent="WIyWlLk6GJQsqaUBKTNV-1" vertex="1">
          <mxGeometry x="-2140" y="180" width="20050" height="8940" as="geometry" />
        </mxCell>
        <mxCell id="bbitNOpa_gt_3JHD-EMG-0" value="&lt;span style=&quot;font-size: 96px;&quot;&gt;流程管理系统&lt;/span&gt;" style="swimlane;whiteSpace=wrap;html=1;startSize=120;strokeWidth=5;labelBackgroundColor=none;fillColor=#e1d5e7;strokeColor=#9673a6;" vertex="1" parent="ctdj9bFus3TpHqiphpjE-0">
          <mxGeometry x="355" y="243.5" width="3435" height="1536.5" as="geometry" />
        </mxCell>
        <mxCell id="bbitNOpa_gt_3JHD-EMG-29" value="&lt;span style=&quot;font-size: 32px;&quot;&gt;开始菜单&lt;/span&gt;" style="rounded=0;whiteSpace=wrap;html=1;" vertex="1" parent="bbitNOpa_gt_3JHD-EMG-0">
          <mxGeometry x="95" y="470" width="320" height="140" as="geometry" />
        </mxCell>
        <mxCell id="bbitNOpa_gt_3JHD-EMG-30" value="&lt;font style=&quot;font-size: 32px;&quot;&gt;开启新游戏&lt;/font&gt;" style="rounded=0;whiteSpace=wrap;html=1;" vertex="1" parent="bbitNOpa_gt_3JHD-EMG-0">
          <mxGeometry x="555" y="350" width="320" height="140" as="geometry" />
        </mxCell>
        <mxCell id="bbitNOpa_gt_3JHD-EMG-31" value="&lt;font style=&quot;font-size: 32px;&quot;&gt;继续游戏&lt;/font&gt;" style="rounded=0;whiteSpace=wrap;html=1;" vertex="1" parent="bbitNOpa_gt_3JHD-EMG-0">
          <mxGeometry x="555" y="600" width="320" height="140" as="geometry" />
        </mxCell>
        <mxCell id="bbitNOpa_gt_3JHD-EMG-38" value="&lt;span style=&quot;font-size: 32px;&quot;&gt;创建地图&lt;/span&gt;" style="rounded=0;whiteSpace=wrap;html=1;" vertex="1" parent="bbitNOpa_gt_3JHD-EMG-0">
          <mxGeometry x="995" y="350" width="320" height="140" as="geometry" />
        </mxCell>
        <mxCell id="bbitNOpa_gt_3JHD-EMG-39" value="&lt;span style=&quot;font-size: 32px;&quot;&gt;加载已有数据&lt;/span&gt;" style="rounded=0;whiteSpace=wrap;html=1;" vertex="1" parent="bbitNOpa_gt_3JHD-EMG-0">
          <mxGeometry x="995" y="600" width="320" height="140" as="geometry" />
        </mxCell>
        <mxCell id="bbitNOpa_gt_3JHD-EMG-40" value="&lt;font style=&quot;font-size: 32px;&quot;&gt;跳跃到层数&lt;/font&gt;" style="rounded=0;whiteSpace=wrap;html=1;" vertex="1" parent="bbitNOpa_gt_3JHD-EMG-0">
          <mxGeometry x="1455" y="755.5" width="320" height="140" as="geometry" />
        </mxCell>
        <mxCell id="bbitNOpa_gt_3JHD-EMG-41" value="&lt;font style=&quot;font-size: 32px;&quot;&gt;进入事件&lt;/font&gt;" style="rounded=0;whiteSpace=wrap;html=1;" vertex="1" parent="bbitNOpa_gt_3JHD-EMG-0">
          <mxGeometry x="1815" y="470" width="320" height="140" as="geometry" />
        </mxCell>
        <mxCell id="bbitNOpa_gt_3JHD-EMG-42" value="&lt;font style=&quot;font-size: 32px;&quot;&gt;完成事件&lt;br&gt;(看到了事件的结果，此时SL已经不能改变结果，尤其针对独立事件)&lt;/font&gt;" style="rounded=0;whiteSpace=wrap;html=1;" vertex="1" parent="bbitNOpa_gt_3JHD-EMG-0">
          <mxGeometry x="2235" y="470" width="515" height="150" as="geometry" />
        </mxCell>
        <mxCell id="bbitNOpa_gt_3JHD-EMG-43" value="&lt;font style=&quot;font-size: 32px;&quot;&gt;保存并退出&lt;/font&gt;" style="rounded=0;whiteSpace=wrap;html=1;" vertex="1" parent="bbitNOpa_gt_3JHD-EMG-0">
          <mxGeometry x="995" y="1096.5" width="320" height="140" as="geometry" />
        </mxCell>
        <mxCell id="bbitNOpa_gt_3JHD-EMG-44" value="" style="endArrow=classic;html=1;rounded=0;" edge="1" parent="bbitNOpa_gt_3JHD-EMG-0" source="bbitNOpa_gt_3JHD-EMG-29" target="bbitNOpa_gt_3JHD-EMG-30">
          <mxGeometry width="50" height="50" relative="1" as="geometry">
            <mxPoint x="225" y="766.5" as="sourcePoint" />
            <mxPoint x="275" y="716.5" as="targetPoint" />
          </mxGeometry>
        </mxCell>
        <mxCell id="bbitNOpa_gt_3JHD-EMG-45" value="" style="endArrow=classic;html=1;rounded=0;" edge="1" parent="bbitNOpa_gt_3JHD-EMG-0" source="bbitNOpa_gt_3JHD-EMG-29" target="bbitNOpa_gt_3JHD-EMG-31">
          <mxGeometry width="50" height="50" relative="1" as="geometry">
            <mxPoint x="425" y="508" as="sourcePoint" />
            <mxPoint x="565" y="472" as="targetPoint" />
          </mxGeometry>
        </mxCell>
        <mxCell id="bbitNOpa_gt_3JHD-EMG-46" value="" style="endArrow=classic;html=1;rounded=0;" edge="1" parent="bbitNOpa_gt_3JHD-EMG-0" source="bbitNOpa_gt_3JHD-EMG-30" target="bbitNOpa_gt_3JHD-EMG-38">
          <mxGeometry width="50" height="50" relative="1" as="geometry">
            <mxPoint x="425" y="595" as="sourcePoint" />
            <mxPoint x="565" y="635" as="targetPoint" />
          </mxGeometry>
        </mxCell>
        <mxCell id="bbitNOpa_gt_3JHD-EMG-47" value="" style="endArrow=classic;html=1;rounded=0;" edge="1" parent="bbitNOpa_gt_3JHD-EMG-0" source="bbitNOpa_gt_3JHD-EMG-31" target="bbitNOpa_gt_3JHD-EMG-39">
          <mxGeometry width="50" height="50" relative="1" as="geometry">
            <mxPoint x="885" y="430" as="sourcePoint" />
            <mxPoint x="1005" y="430" as="targetPoint" />
          </mxGeometry>
        </mxCell>
        <mxCell id="bbitNOpa_gt_3JHD-EMG-48" value="" style="endArrow=classic;html=1;rounded=0;" edge="1" parent="bbitNOpa_gt_3JHD-EMG-0" source="bbitNOpa_gt_3JHD-EMG-38" target="bbitNOpa_gt_3JHD-EMG-41">
          <mxGeometry width="50" height="50" relative="1" as="geometry">
            <mxPoint x="885" y="680" as="sourcePoint" />
            <mxPoint x="1005" y="680" as="targetPoint" />
          </mxGeometry>
        </mxCell>
        <mxCell id="bbitNOpa_gt_3JHD-EMG-49" value="" style="endArrow=classic;html=1;rounded=0;" edge="1" parent="bbitNOpa_gt_3JHD-EMG-0" source="bbitNOpa_gt_3JHD-EMG-39" target="bbitNOpa_gt_3JHD-EMG-41">
          <mxGeometry width="50" height="50" relative="1" as="geometry">
            <mxPoint x="1325" y="453" as="sourcePoint" />
            <mxPoint x="1825" y="527" as="targetPoint" />
          </mxGeometry>
        </mxCell>
        <mxCell id="bbitNOpa_gt_3JHD-EMG-50" value="" style="endArrow=classic;html=1;rounded=0;" edge="1" parent="bbitNOpa_gt_3JHD-EMG-0" source="bbitNOpa_gt_3JHD-EMG-41" target="bbitNOpa_gt_3JHD-EMG-42">
          <mxGeometry width="50" height="50" relative="1" as="geometry">
            <mxPoint x="1325" y="655" as="sourcePoint" />
            <mxPoint x="1825" y="575" as="targetPoint" />
          </mxGeometry>
        </mxCell>
        <mxCell id="bbitNOpa_gt_3JHD-EMG-52" value="" style="endArrow=classic;html=1;rounded=0;" edge="1" parent="bbitNOpa_gt_3JHD-EMG-0" source="bbitNOpa_gt_3JHD-EMG-39" target="bbitNOpa_gt_3JHD-EMG-40">
          <mxGeometry width="50" height="50" relative="1" as="geometry">
            <mxPoint x="1325" y="655" as="sourcePoint" />
            <mxPoint x="1825" y="575" as="targetPoint" />
          </mxGeometry>
        </mxCell>
        <mxCell id="bbitNOpa_gt_3JHD-EMG-53" value="" style="endArrow=classic;html=1;rounded=0;" edge="1" parent="bbitNOpa_gt_3JHD-EMG-0" source="bbitNOpa_gt_3JHD-EMG-42" target="bbitNOpa_gt_3JHD-EMG-40">
          <mxGeometry width="50" height="50" relative="1" as="geometry">
            <mxPoint x="2145" y="550" as="sourcePoint" />
            <mxPoint x="2245" y="550" as="targetPoint" />
          </mxGeometry>
        </mxCell>
        <mxCell id="bbitNOpa_gt_3JHD-EMG-54" value="&lt;font style=&quot;font-size: 32px;&quot;&gt;保存必要数据&lt;/font&gt;" style="rounded=0;whiteSpace=wrap;html=1;" vertex="1" parent="bbitNOpa_gt_3JHD-EMG-0">
          <mxGeometry x="115" y="1096.5" width="320" height="140" as="geometry" />
        </mxCell>
        <mxCell id="bbitNOpa_gt_3JHD-EMG-55" value="" style="endArrow=classic;html=1;rounded=0;" edge="1" parent="bbitNOpa_gt_3JHD-EMG-0" source="bbitNOpa_gt_3JHD-EMG-43" target="bbitNOpa_gt_3JHD-EMG-54">
          <mxGeometry width="50" height="50" relative="1" as="geometry">
            <mxPoint x="1325" y="720" as="sourcePoint" />
            <mxPoint x="1625" y="795" as="targetPoint" />
          </mxGeometry>
        </mxCell>
        <mxCell id="bbitNOpa_gt_3JHD-EMG-56" value="" style="endArrow=classic;html=1;rounded=0;" edge="1" parent="bbitNOpa_gt_3JHD-EMG-0" source="bbitNOpa_gt_3JHD-EMG-54" target="bbitNOpa_gt_3JHD-EMG-29">
          <mxGeometry width="50" height="50" relative="1" as="geometry">
            <mxPoint x="1005" y="1177" as="sourcePoint" />
            <mxPoint x="445" y="1177" as="targetPoint" />
          </mxGeometry>
        </mxCell>
        <mxCell id="bbitNOpa_gt_3JHD-EMG-57" value="" style="endArrow=classic;html=1;rounded=0;" edge="1" parent="bbitNOpa_gt_3JHD-EMG-0" source="bbitNOpa_gt_3JHD-EMG-40" target="bbitNOpa_gt_3JHD-EMG-41">
          <mxGeometry width="50" height="50" relative="1" as="geometry">
            <mxPoint x="1325" y="655" as="sourcePoint" />
            <mxPoint x="1825" y="575" as="targetPoint" />
          </mxGeometry>
        </mxCell>
        <mxCell id="bbitNOpa_gt_3JHD-EMG-82" value="&lt;span style=&quot;font-size: 32px;&quot;&gt;通关&lt;/span&gt;" style="rounded=0;whiteSpace=wrap;html=1;" vertex="1" parent="bbitNOpa_gt_3JHD-EMG-0">
          <mxGeometry x="2945" y="346.5" width="320" height="140" as="geometry" />
        </mxCell>
        <mxCell id="bbitNOpa_gt_3JHD-EMG-83" value="&lt;span style=&quot;font-size: 32px;&quot;&gt;失败&lt;/span&gt;" style="rounded=0;whiteSpace=wrap;html=1;" vertex="1" parent="bbitNOpa_gt_3JHD-EMG-0">
          <mxGeometry x="2945" y="600.5" width="320" height="140" as="geometry" />
        </mxCell>
        <mxCell id="bbitNOpa_gt_3JHD-EMG-84" value="" style="endArrow=classic;html=1;rounded=0;" edge="1" parent="bbitNOpa_gt_3JHD-EMG-0" source="bbitNOpa_gt_3JHD-EMG-42" target="bbitNOpa_gt_3JHD-EMG-82">
          <mxGeometry width="50" height="50" relative="1" as="geometry">
            <mxPoint x="2765" y="676.5" as="sourcePoint" />
            <mxPoint x="2815" y="626.5" as="targetPoint" />
          </mxGeometry>
        </mxCell>
        <mxCell id="bbitNOpa_gt_3JHD-EMG-85" value="" style="endArrow=classic;html=1;rounded=0;" edge="1" parent="bbitNOpa_gt_3JHD-EMG-0" source="bbitNOpa_gt_3JHD-EMG-42" target="bbitNOpa_gt_3JHD-EMG-83">
          <mxGeometry width="50" height="50" relative="1" as="geometry">
            <mxPoint x="2760" y="501" as="sourcePoint" />
            <mxPoint x="2955" y="460" as="targetPoint" />
          </mxGeometry>
        </mxCell>
        <mxCell id="bbitNOpa_gt_3JHD-EMG-1" value="&lt;span style=&quot;font-size: 96px;&quot;&gt;地图数据&lt;/span&gt;" style="swimlane;whiteSpace=wrap;html=1;startSize=120;strokeWidth=5;labelBackgroundColor=none;fillColor=#fff2cc;strokeColor=#d6b656;" vertex="1" parent="ctdj9bFus3TpHqiphpjE-0">
          <mxGeometry x="2450" y="2037" width="1720" height="1300" as="geometry" />
        </mxCell>
        <mxCell id="bbitNOpa_gt_3JHD-EMG-59" value="&lt;span style=&quot;font-size: 32px;&quot;&gt;每层的事件分布&lt;/span&gt;" style="rounded=0;whiteSpace=wrap;html=1;" vertex="1" parent="bbitNOpa_gt_3JHD-EMG-1">
          <mxGeometry x="700" y="200" width="320" height="140" as="geometry" />
        </mxCell>
        <mxCell id="bbitNOpa_gt_3JHD-EMG-63" value="&lt;font style=&quot;font-size: 32px;&quot;&gt;事件信息接口&lt;/font&gt;" style="swimlane;whiteSpace=wrap;html=1;startSize=40;" vertex="1" parent="bbitNOpa_gt_3JHD-EMG-1">
          <mxGeometry x="697" y="440" width="320" height="260" as="geometry" />
        </mxCell>
        <mxCell id="bbitNOpa_gt_3JHD-EMG-64" value="&lt;font style=&quot;font-size: 32px;&quot;&gt;事件类型&lt;/font&gt;" style="rounded=0;whiteSpace=wrap;html=1;" vertex="1" parent="bbitNOpa_gt_3JHD-EMG-63">
          <mxGeometry x="60" y="100" width="210" height="70" as="geometry" />
        </mxCell>
        <mxCell id="bbitNOpa_gt_3JHD-EMG-65" value="&lt;span style=&quot;font-size: 32px;&quot;&gt;战斗事件信息&lt;/span&gt;" style="swimlane;whiteSpace=wrap;html=1;startSize=40;" vertex="1" parent="bbitNOpa_gt_3JHD-EMG-1">
          <mxGeometry x="217" y="830" width="340" height="310" as="geometry" />
        </mxCell>
        <mxCell id="bbitNOpa_gt_3JHD-EMG-66" value="&lt;font style=&quot;font-size: 32px;&quot;&gt;敌人种类和分布&lt;/font&gt;" style="rounded=0;whiteSpace=wrap;html=1;" vertex="1" parent="bbitNOpa_gt_3JHD-EMG-65">
          <mxGeometry x="45" y="110" width="250" height="100" as="geometry" />
        </mxCell>
        <mxCell id="bbitNOpa_gt_3JHD-EMG-69" value="&lt;font style=&quot;font-size: 32px;&quot;&gt;酒馆/商城信息&lt;/font&gt;" style="swimlane;whiteSpace=wrap;html=1;startSize=40;" vertex="1" parent="bbitNOpa_gt_3JHD-EMG-1">
          <mxGeometry x="667" y="835" width="383" height="355" as="geometry" />
        </mxCell>
        <mxCell id="bbitNOpa_gt_3JHD-EMG-70" value="&lt;span style=&quot;font-size: 32px;&quot;&gt;所在的界&lt;/span&gt;" style="rounded=0;whiteSpace=wrap;html=1;" vertex="1" parent="bbitNOpa_gt_3JHD-EMG-69">
          <mxGeometry x="80" y="85" width="230" height="75" as="geometry" />
        </mxCell>
        <mxCell id="bbitNOpa_gt_3JHD-EMG-123" value="&lt;font style=&quot;font-size: 32px;&quot;&gt;影响商品质量期望的其他变量&lt;/font&gt;" style="rounded=0;whiteSpace=wrap;html=1;" vertex="1" parent="bbitNOpa_gt_3JHD-EMG-69">
          <mxGeometry x="60" y="205" width="270" height="88" as="geometry" />
        </mxCell>
        <mxCell id="bbitNOpa_gt_3JHD-EMG-71" value="&lt;font style=&quot;font-size: 32px;&quot;&gt;独立事件信息&lt;/font&gt;" style="swimlane;whiteSpace=wrap;html=1;startSize=40;" vertex="1" parent="bbitNOpa_gt_3JHD-EMG-1">
          <mxGeometry x="1177" y="835" width="380" height="312" as="geometry" />
        </mxCell>
        <mxCell id="bbitNOpa_gt_3JHD-EMG-72" value="&lt;font style=&quot;font-size: 32px;&quot;&gt;所在的界&lt;/font&gt;" style="rounded=0;whiteSpace=wrap;html=1;" vertex="1" parent="bbitNOpa_gt_3JHD-EMG-71">
          <mxGeometry x="45" y="85" width="250" height="87" as="geometry" />
        </mxCell>
        <mxCell id="bbitNOpa_gt_3JHD-EMG-73" value="&lt;font style=&quot;font-size: 32px;&quot;&gt;影响事件质量期望的其他变量&lt;/font&gt;" style="rounded=0;whiteSpace=wrap;html=1;" vertex="1" parent="bbitNOpa_gt_3JHD-EMG-71">
          <mxGeometry x="50" y="195" width="270" height="88" as="geometry" />
        </mxCell>
        <mxCell id="bbitNOpa_gt_3JHD-EMG-74" value="" style="endArrow=classic;html=1;rounded=0;" edge="1" parent="bbitNOpa_gt_3JHD-EMG-1" source="bbitNOpa_gt_3JHD-EMG-65" target="bbitNOpa_gt_3JHD-EMG-63">
          <mxGeometry width="50" height="50" relative="1" as="geometry">
            <mxPoint x="260" y="720" as="sourcePoint" />
            <mxPoint x="310" y="670" as="targetPoint" />
          </mxGeometry>
        </mxCell>
        <mxCell id="bbitNOpa_gt_3JHD-EMG-75" value="" style="endArrow=classic;html=1;rounded=0;" edge="1" parent="bbitNOpa_gt_3JHD-EMG-1" source="bbitNOpa_gt_3JHD-EMG-69" target="bbitNOpa_gt_3JHD-EMG-63">
          <mxGeometry width="50" height="50" relative="1" as="geometry">
            <mxPoint x="567" y="845" as="sourcePoint" />
            <mxPoint x="720" y="710" as="targetPoint" />
          </mxGeometry>
        </mxCell>
        <mxCell id="bbitNOpa_gt_3JHD-EMG-76" value="" style="endArrow=classic;html=1;rounded=0;" edge="1" parent="bbitNOpa_gt_3JHD-EMG-1" source="bbitNOpa_gt_3JHD-EMG-71" target="bbitNOpa_gt_3JHD-EMG-63">
          <mxGeometry width="50" height="50" relative="1" as="geometry">
            <mxPoint x="867" y="845" as="sourcePoint" />
            <mxPoint x="867" y="710" as="targetPoint" />
          </mxGeometry>
        </mxCell>
        <mxCell id="bbitNOpa_gt_3JHD-EMG-2" value="&lt;span style=&quot;font-size: 96px;&quot;&gt;地图数据生成器&lt;/span&gt;" style="swimlane;whiteSpace=wrap;html=1;startSize=120;strokeWidth=5;labelBackgroundColor=none;fillColor=#647687;strokeColor=#314354;fontColor=#ffffff;" vertex="1" parent="ctdj9bFus3TpHqiphpjE-0">
          <mxGeometry x="2220" y="3640" width="1110" height="400" as="geometry" />
        </mxCell>
        <mxCell id="bbitNOpa_gt_3JHD-EMG-125" value="&lt;font style=&quot;font-size: 32px;&quot;&gt;根据输入，生成事件分布，生成事件信息生成器需要的输入，并调用事件生成。最终输出地图数据&lt;/font&gt;" style="rounded=0;whiteSpace=wrap;html=1;" vertex="1" parent="bbitNOpa_gt_3JHD-EMG-2">
          <mxGeometry x="268" y="180" width="570" height="171" as="geometry" />
        </mxCell>
        <mxCell id="bbitNOpa_gt_3JHD-EMG-3" value="&lt;span style=&quot;font-size: 96px;&quot;&gt;战斗数据生成器&lt;/span&gt;" style="swimlane;whiteSpace=wrap;html=1;startSize=120;strokeWidth=5;labelBackgroundColor=none;fillColor=#647687;strokeColor=#314354;fontColor=#ffffff;" vertex="1" parent="ctdj9bFus3TpHqiphpjE-0">
          <mxGeometry x="4960" y="3620" width="1110" height="380" as="geometry" />
        </mxCell>
        <mxCell id="bbitNOpa_gt_3JHD-EMG-106" value="&lt;span style=&quot;font-size: 32px;&quot;&gt;传入战斗事件信息，对敌人进行布局&lt;/span&gt;" style="rounded=0;whiteSpace=wrap;html=1;" vertex="1" parent="bbitNOpa_gt_3JHD-EMG-3">
          <mxGeometry x="260" y="220" width="590" height="98" as="geometry" />
        </mxCell>
        <mxCell id="bbitNOpa_gt_3JHD-EMG-4" value="&lt;span style=&quot;font-size: 96px;&quot;&gt;酒馆数据随机生成器&lt;/span&gt;" style="swimlane;whiteSpace=wrap;html=1;startSize=120;strokeWidth=5;labelBackgroundColor=none;fillColor=#647687;strokeColor=#314354;fontColor=#ffffff;" vertex="1" parent="ctdj9bFus3TpHqiphpjE-0">
          <mxGeometry x="7100" y="3620" width="1100" height="440" as="geometry" />
        </mxCell>
        <mxCell id="bbitNOpa_gt_3JHD-EMG-5" value="&lt;span style=&quot;font-size: 96px;&quot;&gt;商店数据随机生成器&lt;/span&gt;" style="swimlane;whiteSpace=wrap;html=1;startSize=120;strokeWidth=5;labelBackgroundColor=none;fillColor=#647687;strokeColor=#314354;fontColor=#ffffff;" vertex="1" parent="ctdj9bFus3TpHqiphpjE-0">
          <mxGeometry x="9320" y="3630" width="1120" height="330" as="geometry" />
        </mxCell>
        <mxCell id="bbitNOpa_gt_3JHD-EMG-6" value="&lt;span style=&quot;font-size: 96px;&quot;&gt;独立事件数据随机生成器&lt;/span&gt;" style="swimlane;whiteSpace=wrap;html=1;startSize=120;strokeWidth=5;labelBackgroundColor=none;fillColor=#647687;strokeColor=#314354;fontColor=#ffffff;" vertex="1" parent="ctdj9bFus3TpHqiphpjE-0">
          <mxGeometry x="11460" y="3620" width="1110" height="770" as="geometry" />
        </mxCell>
        <mxCell id="bbitNOpa_gt_3JHD-EMG-7" value="&lt;span style=&quot;font-size: 96px;&quot;&gt;游戏记录数据&lt;/span&gt;" style="swimlane;whiteSpace=wrap;html=1;startSize=120;strokeWidth=5;labelBackgroundColor=none;fillColor=#fff2cc;strokeColor=#d6b656;" vertex="1" parent="ctdj9bFus3TpHqiphpjE-0">
          <mxGeometry x="10320" y="4788.000000000001" width="1110" height="770" as="geometry" />
        </mxCell>
        <mxCell id="bbitNOpa_gt_3JHD-EMG-11" value="&lt;span style=&quot;font-size: 32px;&quot;&gt;近n次游戏记录&lt;/span&gt;" style="rounded=0;whiteSpace=wrap;html=1;" vertex="1" parent="bbitNOpa_gt_3JHD-EMG-7">
          <mxGeometry x="395" y="359.9999999999991" width="320" height="140" as="geometry" />
        </mxCell>
        <mxCell id="bbitNOpa_gt_3JHD-EMG-12" value="&lt;span style=&quot;font-size: 96px;&quot;&gt;图鉴记录数据&lt;/span&gt;" style="swimlane;whiteSpace=wrap;html=1;startSize=120;strokeWidth=5;labelBackgroundColor=none;fillColor=#fff2cc;strokeColor=#d6b656;" vertex="1" parent="ctdj9bFus3TpHqiphpjE-0">
          <mxGeometry x="14530" y="4758.000000000001" width="1110" height="770" as="geometry" />
        </mxCell>
        <mxCell id="bbitNOpa_gt_3JHD-EMG-10" value="&lt;span style=&quot;font-size: 32px;&quot;&gt;族系图鉴解锁情况&lt;/span&gt;" style="rounded=0;whiteSpace=wrap;html=1;" vertex="1" parent="bbitNOpa_gt_3JHD-EMG-12">
          <mxGeometry x="366" y="366.9999999999991" width="320" height="140" as="geometry" />
        </mxCell>
        <mxCell id="bbitNOpa_gt_3JHD-EMG-13" value="&lt;span style=&quot;font-size: 96px;&quot;&gt;游戏记录数据存储器&lt;/span&gt;" style="swimlane;whiteSpace=wrap;html=1;startSize=120;strokeWidth=5;labelBackgroundColor=none;fillColor=#647687;strokeColor=#314354;fontColor=#ffffff;" vertex="1" parent="ctdj9bFus3TpHqiphpjE-0">
          <mxGeometry x="10325" y="5738" width="1110" height="770" as="geometry" />
        </mxCell>
        <mxCell id="bbitNOpa_gt_3JHD-EMG-14" value="&lt;span style=&quot;font-size: 96px;&quot;&gt;图鉴记录数据存储器&lt;/span&gt;" style="swimlane;whiteSpace=wrap;html=1;startSize=120;strokeWidth=5;labelBackgroundColor=none;fillColor=#647687;strokeColor=#314354;fontColor=#ffffff;" vertex="1" parent="ctdj9bFus3TpHqiphpjE-0">
          <mxGeometry x="14530" y="5718" width="1110" height="770" as="geometry" />
        </mxCell>
        <mxCell id="bbitNOpa_gt_3JHD-EMG-15" value="&lt;span style=&quot;font-size: 96px;&quot;&gt;地图数据存储器&lt;/span&gt;" style="swimlane;whiteSpace=wrap;html=1;startSize=120;strokeWidth=5;labelBackgroundColor=none;fillColor=#647687;strokeColor=#314354;fontColor=#ffffff;" vertex="1" parent="ctdj9bFus3TpHqiphpjE-0">
          <mxGeometry x="3551" y="3640" width="1099" height="340" as="geometry" />
        </mxCell>
        <mxCell id="bbitNOpa_gt_3JHD-EMG-17" value="&lt;span style=&quot;font-size: 96px;&quot;&gt;教程系统&lt;/span&gt;" style="swimlane;whiteSpace=wrap;html=1;startSize=120;strokeWidth=5;labelBackgroundColor=none;fillColor=#e1d5e7;strokeColor=#9673a6;" vertex="1" parent="ctdj9bFus3TpHqiphpjE-0">
          <mxGeometry x="4750" y="354.25" width="2150" height="1335" as="geometry" />
        </mxCell>
        <mxCell id="bbitNOpa_gt_3JHD-EMG-18" value="&lt;span style=&quot;font-size: 96px;&quot;&gt;教程使用数据&lt;/span&gt;" style="swimlane;whiteSpace=wrap;html=1;startSize=120;strokeWidth=5;labelBackgroundColor=none;fillColor=#fff2cc;strokeColor=#d6b656;" vertex="1" parent="ctdj9bFus3TpHqiphpjE-0">
          <mxGeometry x="12873" y="4788.000000000001" width="1110" height="770" as="geometry" />
        </mxCell>
        <mxCell id="bbitNOpa_gt_3JHD-EMG-20" value="&lt;font style=&quot;font-size: 32px;&quot;&gt;是否开启教程&lt;/font&gt;" style="rounded=0;whiteSpace=wrap;html=1;" vertex="1" parent="bbitNOpa_gt_3JHD-EMG-18">
          <mxGeometry x="395" y="209.9999999999991" width="320" height="140" as="geometry" />
        </mxCell>
        <mxCell id="bbitNOpa_gt_3JHD-EMG-21" value="&lt;font style=&quot;font-size: 32px;&quot;&gt;教程各部分调用记录&lt;/font&gt;" style="rounded=0;whiteSpace=wrap;html=1;" vertex="1" parent="bbitNOpa_gt_3JHD-EMG-18">
          <mxGeometry x="395" y="439.9999999999991" width="320" height="140" as="geometry" />
        </mxCell>
        <mxCell id="bbitNOpa_gt_3JHD-EMG-22" value="&lt;span style=&quot;font-size: 96px;&quot;&gt;教程使用数据存储器&lt;/span&gt;" style="swimlane;whiteSpace=wrap;html=1;startSize=120;strokeWidth=5;labelBackgroundColor=none;fillColor=#647687;strokeColor=#314354;fontColor=#ffffff;" vertex="1" parent="ctdj9bFus3TpHqiphpjE-0">
          <mxGeometry x="12873" y="5718" width="1110" height="770" as="geometry" />
        </mxCell>
        <mxCell id="bbitNOpa_gt_3JHD-EMG-23" value="&lt;span style=&quot;font-size: 96px;&quot;&gt;设置数据&lt;/span&gt;" style="swimlane;whiteSpace=wrap;html=1;startSize=120;strokeWidth=5;labelBackgroundColor=none;fillColor=#fff2cc;strokeColor=#d6b656;" vertex="1" parent="ctdj9bFus3TpHqiphpjE-0">
          <mxGeometry x="11620" y="4780.000000000001" width="1110" height="770" as="geometry" />
        </mxCell>
        <mxCell id="bbitNOpa_gt_3JHD-EMG-9" value="&lt;span style=&quot;font-size: 32px;&quot;&gt;是否需要教程&lt;/span&gt;" style="rounded=0;whiteSpace=wrap;html=1;" vertex="1" parent="bbitNOpa_gt_3JHD-EMG-23">
          <mxGeometry x="96" y="157.9999999999991" width="320" height="140" as="geometry" />
        </mxCell>
        <mxCell id="bbitNOpa_gt_3JHD-EMG-25" value="&lt;font style=&quot;font-size: 32px;&quot;&gt;音乐音量&lt;/font&gt;" style="rounded=0;whiteSpace=wrap;html=1;" vertex="1" parent="bbitNOpa_gt_3JHD-EMG-23">
          <mxGeometry x="96" y="367.9999999999991" width="320" height="140" as="geometry" />
        </mxCell>
        <mxCell id="bbitNOpa_gt_3JHD-EMG-26" value="&lt;font style=&quot;font-size: 32px;&quot;&gt;音效音量&lt;/font&gt;" style="rounded=0;whiteSpace=wrap;html=1;" vertex="1" parent="bbitNOpa_gt_3JHD-EMG-23">
          <mxGeometry x="96" y="567.9999999999991" width="320" height="140" as="geometry" />
        </mxCell>
        <mxCell id="bbitNOpa_gt_3JHD-EMG-27" value="&lt;span style=&quot;font-size: 96px;&quot;&gt;设置数据存储器&lt;/span&gt;" style="swimlane;whiteSpace=wrap;html=1;startSize=120;strokeWidth=5;labelBackgroundColor=none;fillColor=#647687;strokeColor=#314354;fontColor=#ffffff;" vertex="1" parent="ctdj9bFus3TpHqiphpjE-0">
          <mxGeometry x="11620" y="5718" width="1110" height="770" as="geometry" />
        </mxCell>
        <mxCell id="bbitNOpa_gt_3JHD-EMG-33" value="&lt;span style=&quot;font-size: 96px;&quot;&gt;进度数据&lt;/span&gt;" style="swimlane;whiteSpace=wrap;html=1;startSize=120;strokeWidth=5;labelBackgroundColor=none;fillColor=#fff2cc;strokeColor=#d6b656;" vertex="1" parent="ctdj9bFus3TpHqiphpjE-0">
          <mxGeometry x="770" y="2120" width="1095" height="1170" as="geometry" />
        </mxCell>
        <mxCell id="bbitNOpa_gt_3JHD-EMG-34" value="&lt;font style=&quot;font-size: 32px;&quot;&gt;所在地图层数&lt;/font&gt;" style="rounded=0;whiteSpace=wrap;html=1;" vertex="1" parent="bbitNOpa_gt_3JHD-EMG-33">
          <mxGeometry x="235" y="520" width="320" height="140" as="geometry" />
        </mxCell>
        <mxCell id="bbitNOpa_gt_3JHD-EMG-35" value="&lt;span style=&quot;font-size: 32px;&quot;&gt;已进入事件类型(含未进入)&lt;/span&gt;" style="rounded=0;whiteSpace=wrap;html=1;" vertex="1" parent="bbitNOpa_gt_3JHD-EMG-33">
          <mxGeometry x="245" y="780" width="405" height="140" as="geometry" />
        </mxCell>
        <mxCell id="bbitNOpa_gt_3JHD-EMG-36" value="&lt;font style=&quot;font-size: 32px;&quot;&gt;是否有记录&lt;/font&gt;" style="rounded=0;whiteSpace=wrap;html=1;" vertex="1" parent="bbitNOpa_gt_3JHD-EMG-33">
          <mxGeometry x="225" y="240" width="320" height="140" as="geometry" />
        </mxCell>
        <mxCell id="bbitNOpa_gt_3JHD-EMG-37" value="&lt;span style=&quot;font-size: 96px;&quot;&gt;进度数据存储器&lt;/span&gt;" style="swimlane;whiteSpace=wrap;html=1;startSize=120;strokeWidth=5;labelBackgroundColor=none;fillColor=#647687;strokeColor=#314354;fontColor=#ffffff;" vertex="1" parent="ctdj9bFus3TpHqiphpjE-0">
          <mxGeometry x="770" y="3640" width="1100" height="340" as="geometry" />
        </mxCell>
        <mxCell id="bbitNOpa_gt_3JHD-EMG-77" value="&lt;span style=&quot;font-size: 96px;&quot;&gt;(当前)战斗数据&lt;/span&gt;" style="swimlane;whiteSpace=wrap;html=1;startSize=120;strokeWidth=5;labelBackgroundColor=none;fillColor=#fff2cc;strokeColor=#d6b656;" vertex="1" parent="ctdj9bFus3TpHqiphpjE-0">
          <mxGeometry x="4620" y="2037" width="1970" height="1313" as="geometry" />
        </mxCell>
        <mxCell id="bbitNOpa_gt_3JHD-EMG-87" value="&lt;span style=&quot;font-size: 32px;&quot;&gt;战斗结果(含未结束)&lt;/span&gt;" style="rounded=0;whiteSpace=wrap;html=1;" vertex="1" parent="bbitNOpa_gt_3JHD-EMG-77">
          <mxGeometry x="160" y="223" width="320" height="140" as="geometry" />
        </mxCell>
        <mxCell id="bbitNOpa_gt_3JHD-EMG-89" value="&lt;span style=&quot;font-size: 32px;&quot;&gt;敌方布局情况&lt;/span&gt;" style="rounded=0;whiteSpace=wrap;html=1;" vertex="1" parent="bbitNOpa_gt_3JHD-EMG-77">
          <mxGeometry x="825" y="213" width="320" height="140" as="geometry" />
        </mxCell>
        <mxCell id="bbitNOpa_gt_3JHD-EMG-90" value="&lt;font style=&quot;font-size: 32px;&quot;&gt;布局情况&lt;/font&gt;" style="swimlane;whiteSpace=wrap;html=1;startSize=40;" vertex="1" parent="bbitNOpa_gt_3JHD-EMG-77">
          <mxGeometry x="160" y="503" width="610" height="357" as="geometry" />
        </mxCell>
        <mxCell id="bbitNOpa_gt_3JHD-EMG-92" value="&lt;font style=&quot;font-size: 32px;&quot;&gt;界类型→界布局情况&lt;/font&gt;" style="rounded=0;whiteSpace=wrap;html=1;" vertex="1" parent="bbitNOpa_gt_3JHD-EMG-90">
          <mxGeometry x="140" y="113" width="320" height="140" as="geometry" />
        </mxCell>
        <mxCell id="bbitNOpa_gt_3JHD-EMG-93" value="&lt;font style=&quot;font-size: 32px;&quot;&gt;界布局情况&lt;/font&gt;" style="swimlane;whiteSpace=wrap;html=1;startSize=40;" vertex="1" parent="bbitNOpa_gt_3JHD-EMG-77">
          <mxGeometry x="160" y="910" width="610" height="310" as="geometry" />
        </mxCell>
        <mxCell id="bbitNOpa_gt_3JHD-EMG-94" value="&lt;span style=&quot;font-size: 32px;&quot;&gt;坐标→角色必要信息&lt;/span&gt;" style="rounded=0;whiteSpace=wrap;html=1;" vertex="1" parent="bbitNOpa_gt_3JHD-EMG-93">
          <mxGeometry x="145" y="103" width="320" height="140" as="geometry" />
        </mxCell>
        <mxCell id="bbitNOpa_gt_3JHD-EMG-95" value="&lt;font style=&quot;font-size: 32px;&quot;&gt;角色必要信息接口&lt;/font&gt;" style="swimlane;whiteSpace=wrap;html=1;startSize=40;" vertex="1" parent="bbitNOpa_gt_3JHD-EMG-77">
          <mxGeometry x="1190" y="663" width="445" height="140" as="geometry" />
        </mxCell>
        <mxCell id="bbitNOpa_gt_3JHD-EMG-97" value="&lt;span style=&quot;font-size: 32px;&quot;&gt;友方必要信息&lt;/span&gt;" style="swimlane;whiteSpace=wrap;html=1;startSize=40;" vertex="1" parent="bbitNOpa_gt_3JHD-EMG-77">
          <mxGeometry x="990" y="953" width="380" height="310" as="geometry" />
        </mxCell>
        <mxCell id="bbitNOpa_gt_3JHD-EMG-98" value="&lt;span style=&quot;font-size: 32px;&quot;&gt;队员编号&lt;/span&gt;" style="rounded=0;whiteSpace=wrap;html=1;" vertex="1" parent="bbitNOpa_gt_3JHD-EMG-97">
          <mxGeometry x="60" y="121" width="240" height="109" as="geometry" />
        </mxCell>
        <mxCell id="bbitNOpa_gt_3JHD-EMG-99" value="&lt;span style=&quot;font-size: 32px;&quot;&gt;敌方必要信息&lt;/span&gt;" style="swimlane;whiteSpace=wrap;html=1;startSize=40;" vertex="1" parent="bbitNOpa_gt_3JHD-EMG-77">
          <mxGeometry x="1470" y="953" width="380" height="310" as="geometry" />
        </mxCell>
        <mxCell id="bbitNOpa_gt_3JHD-EMG-100" value="&lt;span style=&quot;font-size: 32px;&quot;&gt;怪物编号&lt;/span&gt;" style="rounded=0;whiteSpace=wrap;html=1;" vertex="1" parent="bbitNOpa_gt_3JHD-EMG-99">
          <mxGeometry x="90" y="74" width="200" height="76" as="geometry" />
        </mxCell>
        <mxCell id="bbitNOpa_gt_3JHD-EMG-101" value="&lt;span style=&quot;font-size: 32px;&quot;&gt;其他变量&lt;/span&gt;" style="rounded=0;whiteSpace=wrap;html=1;" vertex="1" parent="bbitNOpa_gt_3JHD-EMG-99">
          <mxGeometry x="90" y="184" width="200" height="76" as="geometry" />
        </mxCell>
        <mxCell id="bbitNOpa_gt_3JHD-EMG-102" value="" style="endArrow=classic;html=1;rounded=0;" edge="1" parent="bbitNOpa_gt_3JHD-EMG-77" source="bbitNOpa_gt_3JHD-EMG-97" target="bbitNOpa_gt_3JHD-EMG-95">
          <mxGeometry width="50" height="50" relative="1" as="geometry">
            <mxPoint x="1040" y="903" as="sourcePoint" />
            <mxPoint x="1090" y="853" as="targetPoint" />
          </mxGeometry>
        </mxCell>
        <mxCell id="bbitNOpa_gt_3JHD-EMG-103" value="" style="endArrow=classic;html=1;rounded=0;" edge="1" parent="bbitNOpa_gt_3JHD-EMG-77" source="bbitNOpa_gt_3JHD-EMG-99" target="bbitNOpa_gt_3JHD-EMG-95">
          <mxGeometry width="50" height="50" relative="1" as="geometry">
            <mxPoint x="1268" y="963" as="sourcePoint" />
            <mxPoint x="1359" y="780" as="targetPoint" />
          </mxGeometry>
        </mxCell>
        <mxCell id="bbitNOpa_gt_3JHD-EMG-105" value="&lt;span style=&quot;font-size: 32px;&quot;&gt;我方布局情况在队伍信息&lt;/span&gt;" style="shape=note;whiteSpace=wrap;html=1;backgroundOutline=1;darkOpacity=0.05;fillColor=#dae8fc;strokeColor=#6c8ebf;" vertex="1" parent="bbitNOpa_gt_3JHD-EMG-77">
          <mxGeometry x="1265" y="213" width="380" height="100" as="geometry" />
        </mxCell>
        <mxCell id="bbitNOpa_gt_3JHD-EMG-78" value="&lt;span style=&quot;font-size: 96px;&quot;&gt;(当前)酒馆数据&lt;/span&gt;" style="swimlane;whiteSpace=wrap;html=1;startSize=120;strokeWidth=5;labelBackgroundColor=none;fillColor=#fff2cc;strokeColor=#d6b656;" vertex="1" parent="ctdj9bFus3TpHqiphpjE-0">
          <mxGeometry x="6800" y="2037" width="1770" height="1303" as="geometry" />
        </mxCell>
        <mxCell id="bbitNOpa_gt_3JHD-EMG-111" value="&lt;span style=&quot;font-size: 32px;&quot;&gt;是否已住宿&lt;/span&gt;" style="rounded=0;whiteSpace=wrap;html=1;" vertex="1" parent="bbitNOpa_gt_3JHD-EMG-78">
          <mxGeometry x="180" y="343" width="320" height="140" as="geometry" />
        </mxCell>
        <mxCell id="bbitNOpa_gt_3JHD-EMG-112" value="&lt;span style=&quot;font-size: 32px;&quot;&gt;商品接口&lt;/span&gt;" style="swimlane;whiteSpace=wrap;html=1;startSize=40;" vertex="1" parent="bbitNOpa_gt_3JHD-EMG-78">
          <mxGeometry x="800" y="493" width="370" height="307" as="geometry" />
        </mxCell>
        <mxCell id="bbitNOpa_gt_3JHD-EMG-115" value="&lt;font style=&quot;font-size: 32px;&quot;&gt;价格&lt;/font&gt;" style="rounded=0;whiteSpace=wrap;html=1;" vertex="1" parent="bbitNOpa_gt_3JHD-EMG-112">
          <mxGeometry x="60" y="200" width="260" height="62" as="geometry" />
        </mxCell>
        <mxCell id="bbitNOpa_gt_3JHD-EMG-117" value="&lt;font style=&quot;font-size: 32px;&quot;&gt;商品信息属性&lt;/font&gt;" style="rounded=0;whiteSpace=wrap;html=1;" vertex="1" parent="bbitNOpa_gt_3JHD-EMG-112">
          <mxGeometry x="60" y="70" width="260" height="62" as="geometry" />
        </mxCell>
        <mxCell id="bbitNOpa_gt_3JHD-EMG-114" value="&lt;font style=&quot;font-size: 32px;&quot;&gt;商品信息列表&lt;/font&gt;" style="rounded=0;whiteSpace=wrap;html=1;" vertex="1" parent="bbitNOpa_gt_3JHD-EMG-78">
          <mxGeometry x="180" y="523" width="320" height="140" as="geometry" />
        </mxCell>
        <mxCell id="bbitNOpa_gt_3JHD-EMG-116" value="&lt;span style=&quot;font-size: 32px;&quot;&gt;商品&amp;lt;商品信息类型&amp;gt;&lt;/span&gt;" style="swimlane;whiteSpace=wrap;html=1;startSize=40;" vertex="1" parent="bbitNOpa_gt_3JHD-EMG-78">
          <mxGeometry x="322" y="933" width="380" height="178" as="geometry" />
        </mxCell>
        <mxCell id="bbitNOpa_gt_3JHD-EMG-121" value="&lt;font style=&quot;font-size: 32px;&quot;&gt;商品信息&lt;/font&gt;" style="rounded=0;whiteSpace=wrap;html=1;" vertex="1" parent="bbitNOpa_gt_3JHD-EMG-116">
          <mxGeometry x="70" y="75" width="240" height="65" as="geometry" />
        </mxCell>
        <mxCell id="bbitNOpa_gt_3JHD-EMG-118" value="&lt;span style=&quot;font-size: 32px;&quot;&gt;商品&amp;lt;角色面板数据&amp;gt;&lt;/span&gt;" style="swimlane;whiteSpace=wrap;html=1;startSize=40;" vertex="1" parent="bbitNOpa_gt_3JHD-EMG-78">
          <mxGeometry x="814" y="933" width="336" height="87" as="geometry" />
        </mxCell>
        <mxCell id="bbitNOpa_gt_3JHD-EMG-122" value="" style="endArrow=classic;html=1;rounded=0;" edge="1" parent="bbitNOpa_gt_3JHD-EMG-78" source="bbitNOpa_gt_3JHD-EMG-118" target="bbitNOpa_gt_3JHD-EMG-112">
          <mxGeometry width="50" height="50" relative="1" as="geometry">
            <mxPoint x="1250" y="963" as="sourcePoint" />
            <mxPoint x="1300" y="913" as="targetPoint" />
          </mxGeometry>
        </mxCell>
        <mxCell id="bbitNOpa_gt_3JHD-EMG-138" value="&lt;font style=&quot;font-size: 32px;&quot;&gt;所在界类型&lt;/font&gt;" style="rounded=0;whiteSpace=wrap;html=1;" vertex="1" parent="bbitNOpa_gt_3JHD-EMG-78">
          <mxGeometry x="180" y="153" width="320" height="140" as="geometry" />
        </mxCell>
        <mxCell id="bbitNOpa_gt_3JHD-EMG-79" value="&lt;span style=&quot;font-size: 96px;&quot;&gt;(当前)商店数据&lt;/span&gt;" style="swimlane;whiteSpace=wrap;html=1;startSize=120;strokeWidth=5;labelBackgroundColor=none;fillColor=#fff2cc;strokeColor=#d6b656;" vertex="1" parent="ctdj9bFus3TpHqiphpjE-0">
          <mxGeometry x="8990" y="2037" width="1770" height="1303" as="geometry" />
        </mxCell>
        <mxCell id="bbitNOpa_gt_3JHD-EMG-130" value="&lt;span style=&quot;font-size: 32px;&quot;&gt;商品接口&lt;/span&gt;" style="swimlane;whiteSpace=wrap;html=1;startSize=40;" vertex="1" parent="bbitNOpa_gt_3JHD-EMG-79">
          <mxGeometry x="965" y="413" width="370" height="307" as="geometry" />
        </mxCell>
        <mxCell id="bbitNOpa_gt_3JHD-EMG-131" value="&lt;font style=&quot;font-size: 32px;&quot;&gt;价格&lt;/font&gt;" style="rounded=0;whiteSpace=wrap;html=1;" vertex="1" parent="bbitNOpa_gt_3JHD-EMG-130">
          <mxGeometry x="60" y="200" width="260" height="62" as="geometry" />
        </mxCell>
        <mxCell id="bbitNOpa_gt_3JHD-EMG-132" value="&lt;font style=&quot;font-size: 32px;&quot;&gt;商品信息属性&lt;/font&gt;" style="rounded=0;whiteSpace=wrap;html=1;" vertex="1" parent="bbitNOpa_gt_3JHD-EMG-130">
          <mxGeometry x="60" y="70" width="260" height="62" as="geometry" />
        </mxCell>
        <mxCell id="bbitNOpa_gt_3JHD-EMG-133" value="&lt;font style=&quot;font-size: 32px;&quot;&gt;商品信息列表&lt;/font&gt;" style="rounded=0;whiteSpace=wrap;html=1;" vertex="1" parent="bbitNOpa_gt_3JHD-EMG-79">
          <mxGeometry x="345" y="443" width="320" height="140" as="geometry" />
        </mxCell>
        <mxCell id="bbitNOpa_gt_3JHD-EMG-134" value="&lt;span style=&quot;font-size: 32px;&quot;&gt;商品&amp;lt;商品信息类型&amp;gt;&lt;/span&gt;" style="swimlane;whiteSpace=wrap;html=1;startSize=40;" vertex="1" parent="bbitNOpa_gt_3JHD-EMG-79">
          <mxGeometry x="487" y="853" width="380" height="178" as="geometry" />
        </mxCell>
        <mxCell id="bbitNOpa_gt_3JHD-EMG-135" value="&lt;font style=&quot;font-size: 32px;&quot;&gt;商品信息&lt;/font&gt;" style="rounded=0;whiteSpace=wrap;html=1;" vertex="1" parent="bbitNOpa_gt_3JHD-EMG-134">
          <mxGeometry x="70" y="75" width="240" height="65" as="geometry" />
        </mxCell>
        <mxCell id="bbitNOpa_gt_3JHD-EMG-136" value="&lt;span style=&quot;font-size: 32px;&quot;&gt;商品&amp;lt;装备数据&amp;gt;&lt;/span&gt;" style="swimlane;whiteSpace=wrap;html=1;startSize=40;" vertex="1" parent="bbitNOpa_gt_3JHD-EMG-79">
          <mxGeometry x="979" y="853" width="361" height="117" as="geometry" />
        </mxCell>
        <mxCell id="bbitNOpa_gt_3JHD-EMG-137" value="" style="endArrow=classic;html=1;rounded=0;" edge="1" source="bbitNOpa_gt_3JHD-EMG-136" target="bbitNOpa_gt_3JHD-EMG-130" parent="bbitNOpa_gt_3JHD-EMG-79">
          <mxGeometry width="50" height="50" relative="1" as="geometry">
            <mxPoint x="1415" y="883" as="sourcePoint" />
            <mxPoint x="1465" y="833" as="targetPoint" />
          </mxGeometry>
        </mxCell>
        <mxCell id="bbitNOpa_gt_3JHD-EMG-139" value="&lt;font style=&quot;font-size: 32px;&quot;&gt;所在界类型&lt;/font&gt;" style="rounded=0;whiteSpace=wrap;html=1;" vertex="1" parent="bbitNOpa_gt_3JHD-EMG-79">
          <mxGeometry x="345" y="213" width="320" height="140" as="geometry" />
        </mxCell>
        <mxCell id="bbitNOpa_gt_3JHD-EMG-80" value="&lt;span style=&quot;font-size: 96px;&quot;&gt;(当前)独立事件数据&lt;/span&gt;" style="swimlane;whiteSpace=wrap;html=1;startSize=120;strokeWidth=5;labelBackgroundColor=none;fillColor=#fff2cc;strokeColor=#d6b656;" vertex="1" parent="ctdj9bFus3TpHqiphpjE-0">
          <mxGeometry x="11160" y="2035.5" width="1770" height="1303" as="geometry" />
        </mxCell>
        <mxCell id="bbitNOpa_gt_3JHD-EMG-140" value="&lt;font style=&quot;font-size: 32px;&quot;&gt;所在界类型&lt;/font&gt;" style="rounded=0;whiteSpace=wrap;html=1;" vertex="1" parent="bbitNOpa_gt_3JHD-EMG-80">
          <mxGeometry x="160" y="184.5" width="320" height="140" as="geometry" />
        </mxCell>
        <mxCell id="bbitNOpa_gt_3JHD-EMG-141" value="&lt;font style=&quot;font-size: 32px;&quot;&gt;UI样式类型&lt;/font&gt;" style="rounded=0;whiteSpace=wrap;html=1;" vertex="1" parent="bbitNOpa_gt_3JHD-EMG-80">
          <mxGeometry x="160" y="374.5" width="320" height="140" as="geometry" />
        </mxCell>
        <mxCell id="bbitNOpa_gt_3JHD-EMG-142" value="&lt;font style=&quot;font-size: 32px;&quot;&gt;独立事件单元数据列表&lt;/font&gt;" style="rounded=0;whiteSpace=wrap;html=1;" vertex="1" parent="bbitNOpa_gt_3JHD-EMG-80">
          <mxGeometry x="140" y="774.5" width="360" height="140" as="geometry" />
        </mxCell>
        <mxCell id="bbitNOpa_gt_3JHD-EMG-143" value="&lt;font style=&quot;font-size: 32px;&quot;&gt;独立事件单元数据接口&lt;/font&gt;" style="swimlane;whiteSpace=wrap;html=1;startSize=40;" vertex="1" parent="bbitNOpa_gt_3JHD-EMG-80">
          <mxGeometry x="920" y="394.5" width="540" height="235.5" as="geometry" />
        </mxCell>
        <mxCell id="bbitNOpa_gt_3JHD-EMG-146" value="&lt;font style=&quot;font-size: 32px;&quot;&gt;单元类型&lt;/font&gt;" style="rounded=0;whiteSpace=wrap;html=1;" vertex="1" parent="bbitNOpa_gt_3JHD-EMG-143">
          <mxGeometry x="90" y="97" width="360" height="90" as="geometry" />
        </mxCell>
        <mxCell id="bbitNOpa_gt_3JHD-EMG-145" value="&lt;span style=&quot;font-size: 32px;&quot;&gt;所在单元索引&lt;/span&gt;" style="rounded=0;whiteSpace=wrap;html=1;" vertex="1" parent="bbitNOpa_gt_3JHD-EMG-80">
          <mxGeometry x="155" y="581.5" width="330" height="140" as="geometry" />
        </mxCell>
        <mxCell id="bbitNOpa_gt_3JHD-EMG-147" value="&lt;span style=&quot;font-size: 32px;&quot;&gt;图片单元&lt;/span&gt;" style="swimlane;whiteSpace=wrap;html=1;startSize=40;" vertex="1" parent="bbitNOpa_gt_3JHD-EMG-80">
          <mxGeometry x="620" y="684.5" width="300" height="125.5" as="geometry" />
        </mxCell>
        <mxCell id="bbitNOpa_gt_3JHD-EMG-148" value="&lt;span style=&quot;font-size: 32px;&quot;&gt;音效单元&lt;/span&gt;" style="swimlane;whiteSpace=wrap;html=1;startSize=40;" vertex="1" parent="bbitNOpa_gt_3JHD-EMG-80">
          <mxGeometry x="980" y="684.5" width="300" height="125.5" as="geometry" />
        </mxCell>
        <mxCell id="bbitNOpa_gt_3JHD-EMG-149" value="&lt;span style=&quot;font-size: 32px;&quot;&gt;文本单元&lt;/span&gt;" style="swimlane;whiteSpace=wrap;html=1;startSize=40;" vertex="1" parent="bbitNOpa_gt_3JHD-EMG-80">
          <mxGeometry x="1340" y="684.5" width="300" height="125.5" as="geometry" />
        </mxCell>
        <mxCell id="bbitNOpa_gt_3JHD-EMG-150" value="&lt;span style=&quot;font-size: 32px;&quot;&gt;选项单元&lt;/span&gt;" style="swimlane;whiteSpace=wrap;html=1;startSize=40;" vertex="1" parent="bbitNOpa_gt_3JHD-EMG-80">
          <mxGeometry x="620" y="864.5" width="300" height="125.5" as="geometry" />
        </mxCell>
        <mxCell id="bbitNOpa_gt_3JHD-EMG-151" value="&lt;span style=&quot;font-size: 32px;&quot;&gt;SO单元&lt;/span&gt;" style="swimlane;whiteSpace=wrap;html=1;startSize=40;" vertex="1" parent="bbitNOpa_gt_3JHD-EMG-80">
          <mxGeometry x="980" y="864.5" width="300" height="125.5" as="geometry" />
        </mxCell>
        <mxCell id="bbitNOpa_gt_3JHD-EMG-107" value="&lt;span style=&quot;font-size: 96px;&quot;&gt;战斗信息生成器&lt;/span&gt;" style="swimlane;whiteSpace=wrap;html=1;startSize=120;strokeWidth=5;labelBackgroundColor=none;fillColor=#647687;strokeColor=#314354;fontColor=#ffffff;" vertex="1" parent="ctdj9bFus3TpHqiphpjE-0">
          <mxGeometry x="2220" y="4110" width="1106" height="350" as="geometry" />
        </mxCell>
        <mxCell id="bbitNOpa_gt_3JHD-EMG-126" value="&lt;font style=&quot;font-size: 32px;&quot;&gt;根据输入输出战斗信息&lt;/font&gt;" style="rounded=0;whiteSpace=wrap;html=1;" vertex="1" parent="bbitNOpa_gt_3JHD-EMG-107">
          <mxGeometry x="380" y="150" width="370" height="120" as="geometry" />
        </mxCell>
        <mxCell id="bbitNOpa_gt_3JHD-EMG-108" value="&lt;span style=&quot;font-size: 96px;&quot;&gt;酒馆信息生成器&lt;/span&gt;" style="swimlane;whiteSpace=wrap;html=1;startSize=120;strokeWidth=5;labelBackgroundColor=none;fillColor=#647687;strokeColor=#314354;fontColor=#ffffff;" vertex="1" parent="ctdj9bFus3TpHqiphpjE-0">
          <mxGeometry x="2220" y="4600" width="1106" height="350" as="geometry" />
        </mxCell>
        <mxCell id="bbitNOpa_gt_3JHD-EMG-127" value="&lt;font style=&quot;font-size: 32px;&quot;&gt;根据输入输出酒馆信息&lt;/font&gt;" style="rounded=0;whiteSpace=wrap;html=1;" vertex="1" parent="bbitNOpa_gt_3JHD-EMG-108">
          <mxGeometry x="360" y="158" width="370" height="120" as="geometry" />
        </mxCell>
        <mxCell id="bbitNOpa_gt_3JHD-EMG-109" value="&lt;span style=&quot;font-size: 96px;&quot;&gt;商城信息生成器&lt;/span&gt;" style="swimlane;whiteSpace=wrap;html=1;startSize=120;strokeWidth=5;labelBackgroundColor=none;fillColor=#647687;strokeColor=#314354;fontColor=#ffffff;" vertex="1" parent="ctdj9bFus3TpHqiphpjE-0">
          <mxGeometry x="2220" y="5070" width="1106" height="350" as="geometry" />
        </mxCell>
        <mxCell id="bbitNOpa_gt_3JHD-EMG-128" value="&lt;font style=&quot;font-size: 32px;&quot;&gt;根据输入输出商城信息&lt;/font&gt;" style="rounded=0;whiteSpace=wrap;html=1;" vertex="1" parent="bbitNOpa_gt_3JHD-EMG-109">
          <mxGeometry x="368" y="168" width="370" height="120" as="geometry" />
        </mxCell>
        <mxCell id="bbitNOpa_gt_3JHD-EMG-110" value="&lt;span style=&quot;font-size: 96px;&quot;&gt;独立事件信息生成器&lt;/span&gt;" style="swimlane;whiteSpace=wrap;html=1;startSize=120;strokeWidth=5;labelBackgroundColor=none;fillColor=#647687;strokeColor=#314354;fontColor=#ffffff;" vertex="1" parent="ctdj9bFus3TpHqiphpjE-0">
          <mxGeometry x="2220" y="5560" width="1106" height="350" as="geometry" />
        </mxCell>
        <mxCell id="bbitNOpa_gt_3JHD-EMG-129" value="&lt;font style=&quot;font-size: 32px;&quot;&gt;根据输入输出独立事件信息&lt;/font&gt;" style="rounded=0;whiteSpace=wrap;html=1;" vertex="1" parent="bbitNOpa_gt_3JHD-EMG-110">
          <mxGeometry x="360" y="178" width="410" height="102" as="geometry" />
        </mxCell>
        <mxCell id="ctdj9bFus3TpHqiphpjE-2" value="&lt;span style=&quot;font-size: 128px;&quot;&gt;图例&lt;/span&gt;" style="swimlane;whiteSpace=wrap;html=1;startSize=120;strokeWidth=5;labelBackgroundColor=none;" parent="WIyWlLk6GJQsqaUBKTNV-1" vertex="1">
          <mxGeometry x="300" y="-560" width="880" height="560" as="geometry" />
        </mxCell>
        <mxCell id="ctdj9bFus3TpHqiphpjE-3" value="&lt;font style=&quot;font-size: 32px;&quot;&gt;系统&lt;/font&gt;" style="rounded=0;whiteSpace=wrap;html=1;fillColor=#e1d5e7;strokeColor=#9673a6;" parent="ctdj9bFus3TpHqiphpjE-2" vertex="1">
          <mxGeometry x="70" y="370" width="320" height="140" as="geometry" />
        </mxCell>
        <mxCell id="ctdj9bFus3TpHqiphpjE-4" value="&lt;font style=&quot;font-size: 32px;&quot;&gt;控制&lt;/font&gt;" style="rounded=0;whiteSpace=wrap;html=1;fillColor=#f8cecc;strokeColor=#b85450;" parent="ctdj9bFus3TpHqiphpjE-2" vertex="1">
          <mxGeometry x="70" y="180" width="320" height="140" as="geometry" />
        </mxCell>
        <mxCell id="ctdj9bFus3TpHqiphpjE-5" value="&lt;font style=&quot;font-size: 32px;&quot;&gt;数据模型&lt;/font&gt;" style="rounded=0;whiteSpace=wrap;html=1;fillColor=#fff2cc;strokeColor=#d6b656;" parent="ctdj9bFus3TpHqiphpjE-2" vertex="1">
          <mxGeometry x="480" y="180" width="320" height="140" as="geometry" />
        </mxCell>
        <mxCell id="ctdj9bFus3TpHqiphpjE-6" value="&lt;span style=&quot;font-size: 32px;&quot;&gt;工具&lt;/span&gt;" style="rounded=0;whiteSpace=wrap;html=1;fillColor=#647687;strokeColor=#314354;fontColor=#ffffff;" parent="ctdj9bFus3TpHqiphpjE-2" vertex="1">
          <mxGeometry x="480" y="370" width="320" height="140" as="geometry" />
        </mxCell>
      </root>
    </mxGraphModel>
  </diagram>
</mxfile>
